<svg height="464pt" viewBox="0 -28 464 464" width="464pt" xmlns="http://www.w3.org/2000/svg"><path d="m384 128.347656c-2.71875 0-5.359375.160156-8 .398438v-.398438c0-39.765625-32.234375-72-72-72-8.71875.035156-17.363281 1.636719-25.519531 4.71875-22.101563-48.875-77.789063-72.882812-128.496094-55.390625-50.710937 17.492188-79.757813 70.722657-67.023437 122.832031-1.039063-.078124-2-.160156-2.960938-.160156-44.183594 0-80 35.816406-80 80s35.816406 80 80 80h304c44.183594 0 80-35.816406 80-80s-35.816406-80-80-80zm0 0" fill="#78b9eb"/><path d="m344 248.347656v144c-.027344 8.824219-7.175781 15.972656-16 16h-192c-8.824219-.027344-15.972656-7.175781-16-16v-144zm0 0" fill="#ffde55"/><path d="m136 200.347656h192c8.824219.027344 15.972656 7.175782 16 16v32h-224v-32c.027344-8.824218 7.175781-15.972656 16-16zm0 0" fill="#ff7956"/><path d="m344 248.347656v144c-.027344 8.824219-7.175781 15.972656-16 16h-152l160-160zm0 0" fill="#ffcd00"/><path d="m144 216.347656h16v16h-16zm0 0" fill="#ff5023"/><path d="m168 216.347656h16v16h-16zm0 0" fill="#ffd422"/><path d="m192 216.347656h16v16h-16zm0 0" fill="#00ccb3"/><g fill="#ffa733"><path d="m160 304.347656h16v48h-16zm0 0"/><path d="m256 304.347656h16v48h-16zm0 0"/><path d="m288 304.347656h16v48h-16zm0 0"/><path d="m216 352.347656c-13.253906 0-24-10.746094-24-24s10.746094-24 24-24 24 10.746094 24 24-10.746094 24-24 24zm0-32c-4.417969 0-8 3.582032-8 8 0 4.417969 3.582031 8 8 8s8-3.582031 8-8c0-4.417968-3.582031-8-8-8zm0 0"/></g></svg>